<svg viewBox="0 0 480 608"  version="1.1" xmlns="http://www.w3.org/2000/svg">
<g id="qubit_lines">
<path id="qubit_line:0" d="M64,64 L448,64 " stroke="black"/>
<text dominant-baseline="central" text-anchor="end" font-family="monospace" font-size="12" x="64" y="64">q0</text>
<path id="qubit_line:1" d="M64,128 L448,128 " stroke="black"/>
<text dominant-baseline="central" text-anchor="end" font-family="monospace" font-size="12" x="64" y="128">q1</text>
<path id="qubit_line:2" d="M64,192 L448,192 " stroke="black"/>
<text dominant-baseline="central" text-anchor="end" font-family="monospace" font-size="12" x="64" y="192">q2</text>
<path id="qubit_line:3" d="M64,256 L448,256 " stroke="black"/>
<text dominant-baseline="central" text-anchor="end" font-family="monospace" font-size="12" x="64" y="256">q3</text>
<path id="qubit_line:4" d="M64,320 L448,320 " stroke="black"/>
<text dominant-baseline="central" text-anchor="end" font-family="monospace" font-size="12" x="64" y="320">q4</text>
<path id="qubit_line:5" d="M64,384 L448,384 " stroke="black"/>
<text dominant-baseline="central" text-anchor="end" font-family="monospace" font-size="12" x="64" y="384">q5</text>
<path id="qubit_line:6" d="M64,448 L448,448 " stroke="black"/>
<text dominant-baseline="central" text-anchor="end" font-family="monospace" font-size="12" x="64" y="448">q6</text>
<path id="qubit_line:7" d="M64,512 L448,512 " stroke="black"/>
<text dominant-baseline="central" text-anchor="end" font-family="monospace" font-size="12" x="64" y="512">q7</text>
</g>
<path d="M96,256 L96,320 " stroke="black"/>
<circle cx="96" cy="256" r="12" stroke="none" fill="black"/>
<circle cx="96" cy="320" r="12" stroke="none" fill="black"/>
<path d="M160,256 L160,448 " stroke="black"/>
<circle cx="160" cy="256" r="12" stroke="none" fill="black"/>
<circle cx="160" cy="448" r="12" stroke="none" fill="black"/>
<path d="M224,448 L224,512 " stroke="black"/>
<circle cx="224" cy="448" r="12" stroke="none" fill="black"/>
<circle cx="224" cy="512" r="12" stroke="none" fill="black"/>
<path d="M288,192 L288,448 " stroke="black"/>
<circle cx="288" cy="192" r="12" stroke="none" fill="black"/>
<circle cx="288" cy="448" r="12" stroke="none" fill="black"/>
<path d="M352,320 L352,512 " stroke="black"/>
<circle cx="352" cy="320" r="12" stroke="none" fill="black"/>
<circle cx="352" cy="512" r="12" stroke="none" fill="black"/>
<path d="M416,64 L416,512 " stroke="black"/>
<circle cx="416" cy="64" r="12" stroke="none" fill="black"/>
<circle cx="416" cy="512" r="12" stroke="none" fill="black"/>
</svg>