<svg viewBox="0 0 416 544"  version="1.1" xmlns="http://www.w3.org/2000/svg">
<g id="qubit_lines">
<path id="qubit_line:0" d="M64,64 L384,64 " stroke="black"/>
<text dominant-baseline="central" text-anchor="end" font-family="monospace" font-size="12" x="64" y="64">q0</text>
<path id="qubit_line:1" d="M64,128 L384,128 " stroke="black"/>
<text dominant-baseline="central" text-anchor="end" font-family="monospace" font-size="12" x="64" y="128">q1</text>
<path id="qubit_line:2" d="M64,192 L384,192 " stroke="black"/>
<text dominant-baseline="central" text-anchor="end" font-family="monospace" font-size="12" x="64" y="192">q2</text>
<path id="qubit_line:3" d="M64,256 L384,256 " stroke="black"/>
<text dominant-baseline="central" text-anchor="end" font-family="monospace" font-size="12" x="64" y="256">q3</text>
<path id="qubit_line:4" d="M64,320 L384,320 " stroke="black"/>
<text dominant-baseline="central" text-anchor="end" font-family="monospace" font-size="12" x="64" y="320">q4</text>
<path id="qubit_line:5" d="M64,384 L384,384 " stroke="black"/>
<text dominant-baseline="central" text-anchor="end" font-family="monospace" font-size="12" x="64" y="384">q5</text>
<path id="qubit_line:6" d="M64,448 L384,448 " stroke="black"/>
<text dominant-baseline="central" text-anchor="end" font-family="monospace" font-size="12" x="64" y="448">q6</text>
</g>
<path d="M96,64 L96,320 " stroke="black"/>
<circle cx="96" cy="64" r="12" stroke="none" fill="black"/>
<circle cx="96" cy="320" r="12" stroke="none" fill="black"/>
<path d="M160,128 L160,384 " stroke="black"/>
<circle cx="160" cy="128" r="12" stroke="none" fill="black"/>
<circle cx="160" cy="384" r="12" stroke="none" fill="black"/>
<path d="M224,64 L224,384 " stroke="black"/>
<circle cx="224" cy="64" r="12" stroke="none" fill="black"/>
<circle cx="224" cy="384" r="12" stroke="none" fill="black"/>
<path d="M288,192 L288,320 " stroke="black"/>
<circle cx="288" cy="192" r="12" stroke="none" fill="black"/>
<circle cx="288" cy="320" r="12" stroke="none" fill="black"/>
<path d="M352,320 L352,448 " stroke="black"/>
<circle cx="352" cy="320" r="12" stroke="none" fill="black"/>
<circle cx="352" cy="448" r="12" stroke="none" fill="black"/>
</svg>