<svg viewBox="0 0 352 416"  version="1.1" xmlns="http://www.w3.org/2000/svg">
<g id="qubit_lines">
<path id="qubit_line:0" d="M64,64 L320,64 " stroke="black"/>
<text dominant-baseline="central" text-anchor="end" font-family="monospace" font-size="12" x="64" y="64">q0</text>
<path id="qubit_line:1" d="M64,128 L320,128 " stroke="black"/>
<text dominant-baseline="central" text-anchor="end" font-family="monospace" font-size="12" x="64" y="128">q1</text>
<path id="qubit_line:2" d="M64,192 L320,192 " stroke="black"/>
<text dominant-baseline="central" text-anchor="end" font-family="monospace" font-size="12" x="64" y="192">q2</text>
<path id="qubit_line:3" d="M64,256 L320,256 " stroke="black"/>
<text dominant-baseline="central" text-anchor="end" font-family="monospace" font-size="12" x="64" y="256">q3</text>
<path id="qubit_line:4" d="M64,320 L320,320 " stroke="black"/>
<text dominant-baseline="central" text-anchor="end" font-family="monospace" font-size="12" x="64" y="320">q4</text>
</g>
<path d="M96,64 L96,256 " stroke="black"/>
<circle cx="96" cy="64" r="12" stroke="none" fill="black"/>
<circle cx="96" cy="256" r="12" stroke="none" fill="black"/>
<path d="M160,128 L160,320 " stroke="black"/>
<circle cx="160" cy="128" r="12" stroke="none" fill="black"/>
<circle cx="160" cy="320" r="12" stroke="none" fill="black"/>
<path d="M224,64 L224,320 " stroke="black"/>
<circle cx="224" cy="64" r="12" stroke="none" fill="black"/>
<circle cx="224" cy="320" r="12" stroke="none" fill="black"/>
<path d="M288,192 L288,256 " stroke="black"/>
<circle cx="288" cy="192" r="12" stroke="none" fill="black"/>
<circle cx="288" cy="256" r="12" stroke="none" fill="black"/>
</svg>